# This file uses centimeters as units for non-parametric coordinates.

mtllib Export_fan.mtl
g default
v -0.828719 4.071883 1.192015
v -0.828719 6.455914 1.192015
v -1.078545 4.071883 1.192015
v -1.078545 6.455914 1.192015
v -1.078545 4.071883 -1.192015
v -1.078545 6.455914 -1.192015
v -0.828719 4.071883 -1.192015
v -0.828719 6.455914 -1.192015
v -1.078546 5.263898 1.575981
v -1.078546 5.263898 -1.575981
v -0.828719 5.263898 -1.575981
v -0.828719 5.263898 1.575981
v -1.078546 6.853978 0.000000
v -1.451163 5.263898 -0.000000
v -1.078545 3.673818 0.000000
v -0.828719 3.673819 0.000000
v -0.828719 5.263898 0.000000
v -0.828719 6.853978 0.000000
v -0.153960 0.472528 0.142785
v 0.153960 0.472528 0.142785
v -0.153960 5.377768 0.142785
v 0.153960 5.377768 0.142785
v -0.153960 5.377768 -0.142785
v 0.153960 5.377768 -0.142785
v -0.153960 0.472528 -0.142785
v 0.153960 0.472528 -0.142785
v -1.254471 0.001510 1.254471
v 1.254471 0.001510 1.254471
v -1.254471 0.264426 1.254471
v 1.254471 0.264426 1.254471
v -1.254471 0.264426 -1.254471
v 1.254471 0.264426 -1.254471
v -1.254471 0.001510 -1.254471
v 1.254471 0.001510 -1.254471
v 0.000000 0.264427 1.658555
v -0.000000 0.264427 -1.658555
v 0.000000 0.001511 -1.658555
v 0.000000 0.001510 1.658555
v 1.673392 0.264426 0.000000
v -0.000000 0.656568 -0.000000
v -1.673392 0.264426 0.000000
v -1.673392 0.001510 0.000000
v 0.000000 0.001510 0.000000
v 1.673392 0.001510 0.000000
v -0.430361 4.861911 0.399125
v 0.430361 4.861911 0.399125
v -0.430361 5.660161 0.399125
v 0.430361 5.660161 0.399125
v -0.430361 5.660161 -0.399125
v 0.430361 5.660161 -0.399125
v -0.430361 4.861911 -0.399125
v 0.430361 4.861911 -0.399125
v 1.190303 4.992954 -0.399125
v 1.190303 4.992954 0.399125
v 1.190303 5.529118 -0.399125
v 1.190303 5.529118 0.399125
v -0.430361 4.861911 -0.399125
v -0.430361 4.861911 0.399125
v -0.430361 5.660161 0.399125
v -0.430361 5.660161 -0.399125
v -0.430361 4.861911 -0.399125
v -0.430361 4.861911 0.399125
v -0.430361 5.660161 0.399125
v -0.430361 5.660161 -0.399125
v -0.430361 4.861911 -0.399125
v -0.430361 4.861911 0.399125
v -0.430361 5.660161 0.399125
v -0.430361 5.660161 -0.399125
v -0.629090 5.114722 -0.146314
v -0.629090 5.114722 0.146314
v -0.629090 5.407350 0.146314
v -0.629090 5.407350 -0.146314
v -0.851337 5.114722 -0.146314
v -0.851337 5.114722 0.146314
v -0.851337 5.407350 0.146314
v -0.851337 5.407350 -0.146314
vt 0.322951 0.326680
vt 0.207137 0.288306
vt 0.214792 0.265202
vt 0.457632 0.325260
vt 0.586469 0.455250
vt 0.383783 0.451030
vt 0.344035 0.566833
vt 0.586469 0.627112
vt 0.204577 0.595369
vt 0.321015 0.558931
vt 0.360762 0.443129
vt 0.205857 0.441838
vt 0.090700 0.324744
vt 0.050952 0.440546
vt 0.027931 0.432645
vt 0.715307 0.325260
vt 0.715307 0.585240
vt 0.088763 0.556995
vt 0.414607 0.455250
vt 0.457632 0.585240
vt 0.758331 0.455250
vt 0.081108 0.580099
vt 0.211846 0.618597
vt 0.586469 0.283388
vt 0.067679 0.316842
vt 0.330606 0.303576
vt 0.027803 0.448063
vt 0.383911 0.435613
vt 0.199868 0.265078
vt 0.196922 0.618473
vt 0.065614 0.564512
vt 0.328284 0.582159
vt 0.083430 0.301516
vt 0.346100 0.319164
vt 0.835966 0.340465
vt 0.866315 0.340528
vt 0.865311 0.823980
vt 0.834963 0.823917
vt 0.806817 0.823859
vt 0.807821 0.340406
vt 0.923805 0.824101
vt 0.893456 0.824038
vt 0.894460 0.340586
vt 0.924808 0.340649
vt 0.238578 0.105723
vt 0.481284 0.052266
vt 0.304306 0.171256
vt 0.553200 0.243416
vt 0.487472 0.177882
vt 0.555481 0.180343
vt 0.489754 0.114809
vt 0.557763 0.117270
vt 0.366259 0.120709
vt 0.429333 0.122991
vt 0.427800 0.165356
vt 0.364727 0.163074
vt 0.617283 0.139557
vt 0.134416 0.190762
vt 0.180456 0.158532
vt 0.644648 0.144540
vt 0.635971 0.226183
vt 0.662235 0.195749
vt 0.613444 0.174433
vt 0.645634 0.173719
vt 0.210943 0.160226
vt 0.662923 0.150473
vt 0.676708 0.184686
vt 0.661255 0.167225
vt 0.182686 0.118389
vt 0.213174 0.120083
vt 0.652479 0.118815
vt 0.676883 0.133091
vt 0.140501 0.081258
vt 0.634474 0.092697
vt 0.236296 0.168796
vt 0.414834 0.227124
vt 0.485190 0.240955
vt 0.306588 0.108183
vt 0.560045 0.054196
vt 0.655728 0.197799
vt 0.660743 0.121129
vt 0.420863 0.060448
vt 0.492035 0.051736
vt 0.474505 0.239650
vt 0.321739 0.675730
vt 0.403687 0.831072
vt 0.348658 0.809675
vt 0.314058 0.697544
vt 0.200686 0.807355
vt 0.203166 0.658097
vt 0.090737 0.694113
vt 0.052672 0.805051
vt 0.724041 0.830831
vt 0.684925 0.709709
vt 0.563742 0.669342
vt 0.563864 0.830952
vt 0.442804 0.952195
vt 0.190551 0.978341
vt 0.198328 0.956568
vt 0.310488 0.920653
vt 0.087347 0.917154
vt 0.685107 0.952013
vt 0.563986 0.992561
vt 0.332381 0.928105
vt 0.210940 0.636325
vt 0.442621 0.709891
vt 0.370738 0.802815
vt 0.030595 0.811910
vt 0.079669 0.938967
vt 0.068849 0.686659
vt 0.205415 0.978574
vt 0.370509 0.817226
vt 0.030817 0.797502
vt 0.065229 0.923914
vt 0.317476 0.942697
vt 0.336172 0.690785
vt 0.083578 0.671763
vt 0.196006 0.635747
vn 0.000000 -0.306601 0.951838
vn 0.000000 0.000000 1.000000
vn 0.000000 0.000000 1.000000
vn 0.000000 -0.306601 0.951838
vn -0.976431 -0.151934 0.153293
vn -0.987900 -0.000000 0.155094
vn -1.000000 -0.000000 -0.000000
vn -0.988110 -0.153751 0.000000
vn -0.000000 -0.306601 -0.951838
vn -0.000000 0.000000 -1.000000
vn -0.000000 -0.000000 -1.000000
vn -0.000000 -0.306601 -0.951838
vn 1.000000 0.000000 -0.000000
vn 1.000000 -0.000000 -0.000000
vn 1.000000 -0.000000 -0.000000
vn 1.000000 0.000000 -0.000000
vn 0.000000 0.948510 0.316748
vn 0.000000 1.000000 0.000000
vn 0.000000 1.000000 0.000000
vn 0.000000 0.948510 0.316748
vn 0.000001 -1.000000 0.000000
vn 0.000000 -0.948510 0.316748
vn 0.000000 -0.948510 0.316748
vn 0.000001 -1.000000 0.000000
vn -0.976431 0.151934 0.153293
vn -0.988110 0.153751 0.000000
vn 0.000000 0.306601 -0.951838
vn 0.000000 0.306601 -0.951838
vn 1.000000 -0.000000 -0.000000
vn 1.000000 -0.000000 -0.000000
vn 0.000000 0.306601 0.951838
vn 0.000000 0.306601 0.951838
vn -0.976431 0.151934 -0.153293
vn -0.987900 0.000000 -0.155094
vn -0.976431 -0.151934 -0.153293
vn 0.000000 -0.948510 -0.316748
vn 0.000000 -0.948510 -0.316748
vn 1.000000 0.000000 -0.000000
vn 1.000000 -0.000000 0.000000
vn 1.000000 -0.000000 0.000000
vn 0.000000 0.948510 -0.316748
vn 0.000000 0.948510 -0.316748
vn 0.000000 0.000000 1.000000
vn 0.000000 0.000000 1.000000
vn 0.000000 0.000000 1.000000
vn 0.000000 0.000000 1.000000
vn 0.000000 1.000000 0.000000
vn 0.000000 1.000000 0.000000
vn 0.000000 1.000000 0.000000
vn 0.000000 1.000000 0.000000
vn 0.000000 0.000000 -1.000000
vn 0.000000 0.000000 -1.000000
vn 0.000000 0.000000 -1.000000
vn 0.000000 0.000000 -1.000000
vn 0.000000 -1.000000 0.000000
vn 0.000000 -1.000000 0.000000
vn 0.000000 -1.000000 0.000000
vn 0.000000 -1.000000 0.000000
vn 1.000000 0.000000 0.000000
vn 1.000000 0.000000 0.000000
vn 1.000000 0.000000 0.000000
vn 1.000000 0.000000 0.000000
vn -1.000000 0.000000 0.000000
vn -1.000000 0.000000 0.000000
vn -1.000000 0.000000 0.000000
vn -1.000000 0.000000 0.000000
vn -0.306601 0.000000 0.951838
vn 0.000000 0.000000 1.000000
vn 0.000000 0.000000 1.000000
vn -0.306601 0.000000 0.951838
vn -0.151934 0.976431 0.153293
vn 0.000000 0.987900 0.155094
vn -0.000000 1.000000 0.000000
vn -0.153751 0.988110 0.000000
vn -0.306601 0.000000 -0.951838
vn -0.000000 0.000000 -1.000000
vn 0.000000 0.000000 -1.000000
vn -0.306601 0.000000 -0.951838
vn 0.000000 -1.000000 -0.000000
vn 0.000000 -1.000000 -0.000000
vn 0.000000 -1.000000 -0.000000
vn 0.000000 -1.000000 -0.000000
vn 0.948510 0.000000 0.316748
vn 1.000000 0.000000 0.000000
vn 1.000000 0.000000 0.000000
vn 0.948510 0.000000 0.316748
vn -1.000000 0.000000 0.000000
vn -0.948510 0.000000 0.316748
vn -0.948510 0.000000 0.316748
vn -1.000000 0.000000 0.000000
vn 0.151934 0.976431 0.153293
vn 0.153751 0.988110 0.000000
vn 0.306601 0.000000 -0.951838
vn 0.306601 0.000000 -0.951838
vn -0.000000 -1.000000 -0.000000
vn -0.000000 -1.000000 -0.000000
vn 0.306601 0.000000 0.951838
vn 0.306601 0.000000 0.951838
vn 0.151934 0.976431 -0.153293
vn 0.000000 0.987900 -0.155094
vn -0.151934 0.976431 -0.153293
vn -0.948510 0.000000 -0.316748
vn -0.948510 0.000000 -0.316748
vn 0.000000 -1.000000 0.000000
vn 0.000000 -1.000000 0.000000
vn -0.000000 -1.000000 0.000000
vn 0.948510 0.000000 -0.316748
vn 0.948510 0.000000 -0.316748
vn 0.000000 0.000000 1.000000
vn 0.000000 0.000000 1.000000
vn 0.000000 0.000000 1.000000
vn 0.000000 0.000000 1.000000
vn 0.000000 1.000000 0.000000
vn 0.080595 0.996747 0.000000
vn 0.080595 0.996747 0.000000
vn 0.000000 1.000000 0.000000
vn 0.000000 0.000000 -1.000000
vn 0.000000 0.000000 -1.000000
vn 0.000000 0.000000 -1.000000
vn 0.000000 0.000000 -1.000000
vn 0.000000 -1.000000 0.000000
vn 0.080595 -0.996747 0.000000
vn 0.080595 -0.996747 0.000000
vn 0.000000 -1.000000 0.000000
vn 1.000000 0.000000 0.000000
vn 1.000000 0.000000 0.000000
vn 1.000000 0.000000 0.000000
vn 1.000000 0.000000 0.000000
vn -1.000000 0.000000 0.000000
vn -1.000000 0.000000 0.000000
vn -1.000000 0.000000 0.000000
vn -1.000000 0.000000 0.000000
vn 0.169931 -0.985456 0.000000
vn 0.169931 -0.985456 0.000000
vn 0.000000 0.000000 -1.000000
vn 0.000000 0.000000 -1.000000
vn 0.169931 0.985456 0.000000
vn 0.169931 0.985456 0.000000
vn 0.000000 0.000000 1.000000
vn 0.000000 0.000000 1.000000
vn 0.000000 0.000000 0.000000
vn 0.000000 0.000000 0.000000
vn 0.000000 0.000000 0.000000
vn 0.000000 0.000000 0.000000
vn 0.000000 0.000000 0.000000
vn 0.000000 0.000000 0.000000
vn 0.000000 0.000000 0.000000
vn 0.000000 0.000000 0.000000
vn 0.000000 0.000000 0.000000
vn 0.000000 0.000000 0.000000
vn 0.000000 0.000000 0.000000
vn 0.000000 0.000000 0.000000
vn 0.000000 0.000000 0.000000
vn 0.000000 0.000000 0.000000
vn 0.000000 0.000000 0.000000
vn 0.000000 0.000000 0.000000
vn 0.000000 0.000000 0.000000
vn 0.000000 0.000000 0.000000
vn 0.000000 0.000000 0.000000
vn 0.000000 0.000000 0.000000
vn 0.000000 0.000000 0.000000
vn 0.000000 0.000000 0.000000
vn 0.000000 0.000000 0.000000
vn 0.000000 0.000000 0.000000
vn 0.000000 0.000000 0.000000
vn 0.000000 0.000000 0.000000
vn 0.000000 0.000000 0.000000
vn 0.000000 0.000000 0.000000
vn 0.000000 0.000000 0.000000
vn 0.000000 0.000000 0.000000
vn 0.000000 0.000000 0.000000
vn 0.000000 0.000000 0.000000
vn 0.000000 0.000000 0.000000
vn 0.000000 0.000000 0.000000
vn 0.000000 0.000000 0.000000
vn 0.000000 0.000000 0.000000
vn 0.000000 0.000000 0.000000
vn 0.000000 0.000000 0.000000
vn 0.000000 0.000000 0.000000
vn 0.000000 0.000000 0.000000
vn 0.000000 0.000000 0.000000
vn 0.000000 0.000000 0.000000
vn 0.000000 0.000000 0.000000
vn 0.000000 0.000000 0.000000
vn 0.000000 0.000000 0.000000
vn 0.000000 0.000000 0.000000
vn 0.000000 0.000000 0.000000
vn 0.000000 0.000000 0.000000
vn -0.786181 -0.617997 0.000000
vn -0.786181 -0.617997 0.000000
vn -0.786181 -0.617997 0.000000
vn -0.786181 -0.617997 0.000000
vn -0.786181 0.000000 0.617997
vn -0.786181 0.000000 0.617997
vn -0.786181 0.000000 0.617997
vn -0.786181 0.000000 0.617997
vn -0.786181 0.617997 0.000000
vn -0.786181 0.617997 0.000000
vn -0.786181 0.617997 0.000000
vn -0.786181 0.617997 0.000000
vn -0.786181 0.000000 -0.617997
vn -0.786181 0.000000 -0.617997
vn -0.786181 0.000000 -0.617997
vn -0.786181 0.000000 -0.617997
vn 0.000000 -1.000000 0.000000
vn 0.000000 -1.000000 0.000000
vn 0.000000 -1.000000 0.000000
vn 0.000000 -1.000000 0.000000
vn 0.000000 0.000000 1.000000
vn 0.000000 0.000000 1.000000
vn 0.000000 0.000000 1.000000
vn 0.000000 0.000000 1.000000
vn 0.000000 1.000000 0.000000
vn 0.000000 1.000000 0.000000
vn 0.000000 1.000000 0.000000
vn 0.000000 1.000000 0.000000
vn 0.000000 0.000000 -1.000000
vn 0.000000 0.000000 -1.000000
vn 0.000000 0.000000 -1.000000
vn 0.000000 0.000000 -1.000000
s 1
g pCube4
usemtl initialShadingGroup
f 1/116/1 12/107/2 9/87/3 3/88/4
s 2
f 3/88/5 9/87/6 14/89/7 15/90/8
s 3
f 5/91/9 10/92/10 11/113/11 7/110/12
s 4
f 16/95/13 17/96/14 12/86/15 1/106/16
s 5
f 2/115/17 18/111/18 13/99/19 4/100/20
s 6
f 16/105/21 1/85/22 3/88/23 15/90/24
s 2
f 9/87/6 4/100/25 13/99/26 14/89/7
s 3
f 11/108/11 10/92/10 6/101/27 8/114/28
s 4
f 12/86/15 17/96/14 18/103/29 2/97/30
s 1
f 9/87/3 12/112/2 2/104/31 4/100/32
s 2
f 14/89/7 13/99/26 6/101/33 10/92/34
f 15/90/8 14/89/7 10/92/34 5/91/35
s 6
f 7/117/36 16/118/21 15/90/24 5/91/37
s 4
f 7/94/38 11/93/39 17/96/14 16/95/13
f 18/103/29 17/96/14 11/93/39 8/102/40
s 5
f 13/99/19 18/98/18 8/109/41 6/101/42
s off
f 19/35/43 20/36/44 22/37/45 21/38/46
f 21//47 22//48 24//49 23//50
f 23/41/51 24/42/52 26/43/53 25/44/54
f 25//55 26//56 20//57 19//58
f 20/36/59 26/43/60 24/42/61 22/37/62
f 25/40/63 19/35/64 21/38/65 23/39/66
s 7
f 27/1/67 38/2/68 35/3/69 29/26/70
s 8
f 29/4/71 35/24/72 40/5/73 41/19/74
s 9
f 31/32/75 36/23/76 37/9/77 33/10/78
s 10
f 42/11/79 43/12/80 38/2/81 27/1/82
s 11
f 28/13/83 44/14/84 39/15/85 30/25/86
s 12
f 42/11/87 27/1/88 29/34/89 41/28/90
s 8
f 35/24/72 30/16/91 39/21/92 40/5/73
s 9
f 37/9/77 36/30/76 32/22/93 34/18/94
s 10
f 38/2/81 43/12/80 44/14/95 28/13/96
s 7
f 35/29/69 38/2/68 28/13/97 30/33/98
s 8
f 40/5/73 39/21/92 32/17/99 36/8/100
f 41/19/74 40/5/73 36/8/100 31/20/101
s 12
f 33/10/102 42/11/87 41/6/90 31/7/103
s 10
f 33/10/104 37/9/105 43/12/80 42/11/79
f 44/14/95 43/12/80 37/9/105 34/18/106
s 11
f 39/27/85 44/14/84 34/18/107 32/31/108
s 13
f 45/45/109 46/78/110 48/47/111 47/75/112
s 14
f 47/48/113 48/77/114 50/49/115 49/50/116
s 15
f 49/50/117 50/49/118 52/51/119 51/52/120
s 16
f 51/52/121 52/51/122 46/83/123 45/79/124
s off
f 54/53/125 53/54/126 55/55/127 56/56/128
f 73//129 74//130 75//131 76//132
s 16
f 46/46/123 52/51/122 53/54/133 54/82/134
s 15
f 52/51/119 50/49/118 55/55/135 53/54/136
s 14
f 50/49/115 48/84/114 56/76/137 55/55/138
s 13
f 48/47/111 46/78/110 54/53/139 56/56/140
s off
f 51//141 45//142 58//143 57//144
f 45//145 47//146 59//147 58//148
f 47//149 49//150 60//151 59//152
f 49//153 51//154 57//155 60//156
f 57//157 58//158 62//159 61//160
f 58//161 59//162 63//163 62//164
f 59//165 60//166 64//167 63//168
f 60//169 57//170 61//171 64//172
f 61//173 62//174 66//175 65//176
f 62//177 63//178 67//179 66//180
f 63//181 64//182 68//183 67//184
f 64//185 61//186 65//187 68//188
f 65/57/189 66/74/190 70/71/191 69/60/192
f 66/58/193 67/73/194 71/69/195 70/59/196
f 67/61/197 68/63/198 72/64/199 71/80/200
f 68/63/201 65/57/202 69/60/203 72/64/204
f 69/60/205 70/81/206 74/72/207 73/66/208
f 70/59/209 71/69/210 75/70/211 74/65/212
f 71/62/213 72/64/214 76/68/215 75/67/216
f 72/64/217 69/60/218 73/66/219 76/68/220
